<?xml version="1.0" encoding="utf-8"?>
<!-- Generator: Adobe Illustrator 19.2.0, SVG Export Plug-In . SVG Version: 6.00 Build 0)  -->
<svg xmlns="http://www.w3.org/2000/svg" xmlns:xlink="http://www.w3.org/1999/xlink" version="1.1" id="clouddistribution" x="0px" y="0px" viewBox="0 0 225.2539 224.9449" enable-background="new 0 0 225.2539 224.9449" xml:space="preserve" width="512" height="512">
<g>
	<path fill="#5CB0FF" d="M207.3203,73.8609c0-24.3965-19.9863-44.2441-44.5547-44.2441c-8.6465,0-17.0293,2.4609-24.2461,7.1172   l-3.9453,2.5449l-1.8848-4.2988c-6.5723-14.9805-21.4492-24.6602-37.9004-24.6602c-20.4316,0-38.0156,15.1191-40.9004,35.168   l-0.5,3.4746l-3.918-0.0469c-19.2129,0-34.8438,15.5195-34.8438,34.5938c0,19.0762,15.6309,34.5957,34.8438,34.5957h114.0586   C187.6484,117.73,207.3203,97.8824,207.3203,73.8609z"/>
	<path fill="#1C71DA" d="M205.4551,158.5211c-1.5625-1.5625-4.0938-1.5625-5.6562,0s-1.5625,4.0938,0,5.6562l10.1426,10.1426   h-58.9609v-48.2197l12.6094-0.001c28.5254-0.4355,51.7305-23.8691,51.7305-52.2383c0-28.8066-23.5762-52.2441-52.5547-52.2441   c-8.6855,0-17.1523,2.1113-24.7344,6.1367c-8.6055-15.5859-25.125-25.4336-43.2422-25.4336   c-23.2383,0-43.3926,16.4102-48.2188,38.6914C24.2949,42.4996,6.627,60.9918,6.627,83.5093   c0,23.4883,19.2188,42.5957,42.8438,42.5957l24.8027-0.001v48.2158H15.3125l10.1426-10.1426c1.5625-1.5625,1.5625-4.0938,0-5.6562   s-4.0938-1.5625-5.6562,0L0,178.3199l19.7988,19.7988c0.7812,0.7812,1.8047,1.1719,2.8281,1.1719s2.0469-0.3906,2.8281-1.1719   c1.5625-1.5625,1.5625-4.0938,0-5.6562l-10.1426-10.1426h66.9609v-56.2168l24.3535-0.001v83.5303l-10.1426-10.1426   c-1.5625-1.5625-4.0938-1.5625-5.6562,0s-1.5625,4.0938,0,5.6562l19.7988,19.7988l19.7988-19.7988   c1.5625-1.5625,1.5625-4.0938,0-5.6562s-4.0938-1.5625-5.6562,0l-10.1426,10.1426v-83.5308l28.3535-0.0015v56.2197h66.9609   l-10.1426,10.1426c-1.5625,1.5625-1.5625,4.0938,0,5.6562c0.7812,0.7812,1.8047,1.1719,2.8281,1.1719s2.0469-0.3906,2.8281-1.1719   l19.7988-19.7988L205.4551,158.5211z M14.627,83.5093c0-19.0742,15.6309-34.5938,34.8438-34.5938l3.918,0.0469l0.5-3.4746   c2.8848-20.0488,20.4688-35.168,40.9004-35.168c16.4512,0,31.3281,9.6797,37.9004,24.6602l1.8848,4.2988l3.9453-2.5449   c7.2168-4.6562,15.5996-7.1172,24.2461-7.1172c24.5684,0,44.5547,19.8477,44.5547,44.2441   c0,24.0215-19.6719,43.8691-43.791,44.2441H49.4707C30.2578,118.105,14.627,102.5855,14.627,83.5093z"/>
</g>
<path fill="#FF5D5D" d="M190.8794,22.1436c-1.0239,0-2.0474-0.3906-2.8286-1.1714c-1.562-1.5625-1.562-4.0947,0-5.6572  l14.1421-14.1421c1.5625-1.5615,4.0947-1.5615,5.6572,0c1.562,1.5625,1.562,4.0947,0,5.6572L193.708,20.9722  C192.9268,21.753,191.9033,22.1436,190.8794,22.1436z"/>
<path fill="#FF5D5D" d="M205.0215,22.1422c-1.0239,0-2.0474-0.3906-2.8286-1.1714L188.0508,6.8282  c-1.562-1.5625-1.562-4.0952,0-5.6572c1.5635-1.5615,4.0957-1.561,5.6572,0l14.1421,14.1426c1.562,1.5625,1.562,4.0952,0,5.6572  C207.0688,21.7515,206.0449,22.1422,205.0215,22.1422z"/>
<path fill="#00D40B" d="M168.8794,166.1436c-7.7197,0-14-6.2803-14-14s6.2803-14,14-14s14,6.2803,14,14  S176.5991,166.1436,168.8794,166.1436z M168.8794,146.1436c-3.3086,0-6,2.6914-6,6s2.6914,6,6,6s6-2.6914,6-6  S172.188,146.1436,168.8794,146.1436z"/>
<path fill="#FFC504" d="M50.1929,104.7691c-1.0239,0-2.0474-0.3906-2.8286-1.1714L36.0508,92.2842  c-1.562-1.5625-1.562-4.0947,0-5.6572l11.3135-11.3135c1.5625-1.5615,4.0952-1.5615,5.6567,0L64.335,86.627  c0.7505,0.7505,1.1719,1.7676,1.1719,2.8286s-0.4214,2.0781-1.1719,2.8286l-11.314,11.3135  C52.2402,104.3785,51.2163,104.7691,50.1929,104.7691z M44.5361,89.4556l5.6567,5.6567l5.6572-5.6567l-5.6572-5.6567  L44.5361,89.4556z"/>
</svg>
